<svg id="svg" version="1.1" xmlns="http://www.w3.org/2000/svg" xmlns:xlink="http://www.w3.org/1999/xlink" width="400" height="394.71698113207543" viewBox="0, 0, 400,394.71698113207543"><g id="svgg"><path id="path0" d="M137.417 4.610 C 135.356 4.699,133.499 4.941,133.291 5.149 C 133.083 5.358,131.714 5.528,130.250 5.528 C 128.786 5.528,127.479 5.706,127.345 5.923 C 127.210 6.140,126.311 6.318,125.347 6.318 C 124.382 6.318,123.593 6.496,123.593 6.713 C 123.593 6.930,122.705 7.108,121.619 7.108 C 120.533 7.108,119.645 7.285,119.645 7.502 C 119.645 7.720,118.934 7.897,118.065 7.897 C 117.196 7.897,116.486 8.075,116.486 8.292 C 116.486 8.509,115.864 8.687,115.104 8.687 C 114.344 8.687,113.722 8.865,113.722 9.082 C 113.722 9.299,113.011 9.477,112.142 9.477 C 111.273 9.477,110.563 9.654,110.563 9.872 C 110.563 10.089,110.030 10.267,109.378 10.267 C 108.727 10.267,108.193 10.444,108.193 10.661 C 108.193 10.879,107.749 11.056,107.206 11.056 C 106.663 11.056,106.219 11.234,106.219 11.451 C 106.219 11.668,105.686 11.846,105.035 11.846 C 104.383 11.846,103.850 12.024,103.850 12.241 C 103.850 12.458,103.426 12.636,102.908 12.636 C 101.637 12.636,97.927 13.857,97.927 14.275 C 97.927 14.459,97.394 14.610,96.742 14.610 C 96.091 14.610,95.558 14.788,95.558 15.005 C 95.558 15.222,95.202 15.400,94.768 15.400 C 94.334 15.400,93.978 15.577,93.978 15.795 C 93.978 16.012,93.623 16.190,93.189 16.190 C 92.754 16.190,92.399 16.367,92.399 16.584 C 92.399 16.802,92.079 16.979,91.688 16.979 C 90.805 16.979,88.852 17.862,88.848 18.263 C 88.846 18.425,88.490 18.559,88.055 18.559 C 87.621 18.559,87.266 18.736,87.266 18.954 C 87.266 19.171,86.910 19.348,86.476 19.348 C 86.041 19.348,85.686 19.526,85.686 19.743 C 85.686 19.961,85.331 20.138,84.896 20.138 C 84.462 20.138,84.107 20.316,84.107 20.533 C 84.107 20.750,83.751 20.928,83.317 20.928 C 82.883 20.928,82.527 21.102,82.527 21.315 C 82.527 21.528,82.083 21.814,81.540 21.950 C 80.997 22.087,80.553 22.357,80.553 22.550 C 80.553 22.744,80.197 22.902,79.763 22.902 C 79.329 22.902,78.973 23.080,78.973 23.297 C 78.973 23.514,78.657 23.692,78.271 23.692 C 77.884 23.692,77.312 24.047,76.999 24.482 C 76.686 24.916,76.114 25.271,75.727 25.271 C 75.341 25.271,75.025 25.449,75.025 25.666 C 75.025 25.884,74.712 26.061,74.330 26.061 C 73.948 26.061,73.413 26.417,73.142 26.851 C 72.871 27.285,72.423 27.641,72.147 27.641 C 71.871 27.641,71.389 27.996,71.076 28.430 C 70.763 28.865,70.191 29.220,69.804 29.220 C 69.418 29.220,69.102 29.394,69.102 29.607 C 69.102 29.821,68.677 30.101,68.158 30.232 C 67.639 30.362,66.717 30.987,66.110 31.621 C 65.502 32.255,64.847 32.774,64.653 32.774 C 64.460 32.774,63.618 33.485,62.784 34.353 C 61.949 35.222,61.070 35.933,60.830 35.933 C 60.590 35.933,59.594 36.732,58.617 37.710 C 57.640 38.687,56.665 39.487,56.451 39.487 C 55.926 39.487,41.066 54.369,41.066 54.895 C 41.066 55.124,40.267 56.088,39.289 57.038 C 38.312 57.988,37.512 59.008,37.512 59.305 C 37.512 59.602,37.157 60.102,36.723 60.415 C 36.288 60.728,35.933 61.229,35.933 61.528 C 35.933 61.827,35.400 62.570,34.748 63.179 C 34.097 63.787,33.564 64.450,33.564 64.650 C 33.564 64.851,33.101 65.446,32.536 65.973 C 31.971 66.499,31.138 67.774,30.685 68.806 C 30.233 69.837,29.717 70.681,29.541 70.681 C 29.365 70.681,29.220 70.997,29.220 71.384 C 29.220 71.770,28.865 72.342,28.430 72.655 C 27.996 72.969,27.641 73.452,27.641 73.730 C 27.641 74.008,27.463 74.235,27.246 74.235 C 27.029 74.235,26.851 74.551,26.851 74.938 C 26.851 75.324,26.496 75.896,26.061 76.209 C 25.627 76.522,25.271 77.095,25.271 77.481 C 25.271 77.867,25.094 78.184,24.877 78.184 C 24.659 78.184,24.482 78.539,24.482 78.973 C 24.482 79.408,24.304 79.763,24.087 79.763 C 23.870 79.763,23.692 80.104,23.692 80.520 C 23.692 80.936,23.552 81.336,23.380 81.408 C 22.958 81.586,20.928 85.955,20.928 86.684 C 20.928 87.004,20.750 87.266,20.533 87.266 C 20.316 87.266,20.138 87.621,20.138 88.055 C 20.138 88.490,19.961 88.845,19.743 88.845 C 19.526 88.845,19.348 89.200,19.348 89.635 C 19.348 90.069,19.171 90.424,18.954 90.424 C 18.736 90.424,18.559 90.691,18.559 91.017 C 18.559 91.343,18.381 91.609,18.164 91.609 C 17.947 91.609,17.769 92.142,17.769 92.794 C 17.769 93.445,17.591 93.978,17.374 93.978 C 17.157 93.978,16.979 94.334,16.979 94.768 C 16.979 95.202,16.802 95.558,16.584 95.558 C 16.367 95.558,16.190 96.091,16.190 96.742 C 16.190 97.394,16.012 97.927,15.795 97.927 C 15.577 97.927,15.400 98.361,15.400 98.891 C 15.400 99.421,15.222 99.964,15.005 100.099 C 14.788 100.233,14.610 100.766,14.610 101.283 C 14.610 101.801,14.432 102.334,14.215 102.468 C 13.998 102.602,13.820 103.135,13.820 103.653 C 13.820 104.170,13.659 104.693,13.462 104.814 C 13.266 104.936,12.982 105.924,12.833 107.009 C 12.684 108.095,12.401 108.983,12.204 108.983 C 12.007 108.983,11.846 109.694,11.846 110.563 C 11.846 111.431,11.668 112.142,11.451 112.142 C 11.234 112.142,11.056 112.853,11.056 113.722 C 11.056 114.590,10.879 115.301,10.661 115.301 C 10.444 115.301,10.267 115.923,10.267 116.683 C 10.267 117.443,10.089 118.065,9.872 118.065 C 9.652 118.065,9.477 119.118,9.477 120.434 C 9.477 121.751,9.301 122.804,9.082 122.804 C 8.865 122.804,8.687 123.781,8.687 124.975 C 8.687 126.170,8.509 127.147,8.292 127.147 C 8.062 127.147,7.897 128.463,7.897 130.306 C 7.897 132.149,7.733 133.465,7.502 133.465 C 7.246 133.465,7.108 138.861,7.108 148.865 C 7.108 158.868,7.246 164.265,7.502 164.265 C 7.735 164.265,7.897 165.647,7.897 167.621 C 7.897 169.595,8.060 170.977,8.292 170.977 C 8.515 170.977,8.687 172.096,8.687 173.544 C 8.687 174.992,8.859 176.111,9.082 176.111 C 9.299 176.111,9.477 176.999,9.477 178.085 C 9.477 179.171,9.654 180.059,9.872 180.059 C 10.089 180.059,10.267 180.770,10.267 181.639 C 10.267 182.507,10.444 183.218,10.661 183.218 C 10.879 183.218,11.056 183.840,11.056 184.600 C 11.056 185.360,11.234 185.982,11.451 185.982 C 11.668 185.982,11.846 186.693,11.846 187.562 C 11.846 188.430,11.999 189.141,12.186 189.141 C 12.372 189.141,12.629 190.144,12.755 191.369 C 12.882 192.595,13.173 193.785,13.403 194.015 C 13.632 194.244,13.820 194.930,13.820 195.538 C 13.820 196.146,13.998 196.644,14.215 196.644 C 14.432 196.644,14.610 197.077,14.610 197.607 C 14.610 198.138,14.788 198.681,15.005 198.815 C 15.222 198.950,15.400 199.493,15.400 200.023 C 15.400 200.553,15.577 200.987,15.795 200.987 C 16.012 200.987,16.190 201.343,16.190 201.777 C 16.190 202.211,16.367 202.567,16.584 202.567 C 16.802 202.567,16.979 203.100,16.979 203.751 C 16.979 204.403,17.157 204.936,17.374 204.936 C 17.591 204.936,17.769 205.291,17.769 205.726 C 17.769 206.160,17.947 206.515,18.164 206.515 C 18.381 206.515,18.559 207.048,18.559 207.700 C 18.559 208.351,18.736 208.885,18.954 208.885 C 19.171 208.885,19.348 209.151,19.348 209.477 C 19.348 209.803,19.526 210.069,19.743 210.069 C 19.961 210.069,20.138 210.424,20.138 210.859 C 20.138 211.293,20.316 211.649,20.533 211.649 C 20.750 211.649,20.928 211.907,20.928 212.222 C 20.928 214.665,24.284 215.936,25.666 214.018 C 25.979 213.583,26.512 213.228,26.851 213.228 C 27.189 213.228,27.722 212.873,28.036 212.438 C 28.349 212.004,28.793 211.649,29.023 211.649 C 29.253 211.649,29.697 211.293,30.010 210.859 C 30.323 210.424,30.873 210.069,31.233 210.069 C 31.593 210.069,32.109 209.803,32.379 209.477 C 32.649 209.151,33.165 208.885,33.525 208.885 C 33.885 208.885,34.435 208.529,34.748 208.095 C 35.061 207.660,35.517 207.305,35.761 207.305 C 36.006 207.305,36.527 206.950,36.920 206.515 C 37.313 206.081,37.835 205.726,38.079 205.726 C 38.323 205.726,38.779 205.370,39.092 204.936 C 39.405 204.501,39.938 204.146,40.276 204.146 C 40.615 204.146,41.148 203.791,41.461 203.356 C 41.774 202.922,42.346 202.567,42.733 202.567 C 43.119 202.567,43.435 202.422,43.435 202.245 C 43.435 202.068,44.057 201.627,44.817 201.264 C 45.577 200.902,46.199 200.425,46.199 200.204 C 46.199 199.983,46.516 199.803,46.902 199.803 C 47.288 199.803,47.861 199.447,48.174 199.013 C 48.487 198.578,49.020 198.223,49.358 198.223 C 49.697 198.223,50.230 197.868,50.543 197.433 C 50.856 196.999,51.363 196.644,51.670 196.644 C 51.976 196.644,52.517 196.333,52.871 195.953 C 53.226 195.573,53.868 195.065,54.300 194.826 C 55.352 194.241,55.611 190.082,54.708 188.272 C 54.372 187.597,54.097 186.728,54.097 186.340 C 54.097 185.952,53.919 185.524,53.702 185.390 C 53.485 185.256,53.307 184.712,53.307 184.182 C 53.307 183.652,53.129 183.218,52.912 183.218 C 52.695 183.218,52.517 182.685,52.517 182.034 C 52.517 181.382,52.340 180.849,52.122 180.849 C 51.905 180.849,51.728 180.316,51.728 179.664 C 51.728 179.013,51.550 178.480,51.333 178.480 C 51.115 178.480,50.938 177.858,50.938 177.098 C 50.938 176.338,50.760 175.716,50.543 175.716 C 50.326 175.716,50.148 175.005,50.148 174.136 C 50.148 173.268,49.970 172.557,49.753 172.557 C 49.536 172.557,49.358 171.846,49.358 170.977 C 49.358 170.109,49.181 169.398,48.963 169.398 C 48.746 169.398,48.569 168.421,48.569 167.226 C 48.569 166.032,48.391 165.054,48.174 165.054 C 47.941 165.054,47.779 163.672,47.779 161.698 C 47.779 159.724,47.616 158.342,47.384 158.342 C 47.134 158.342,46.989 155.380,46.989 150.247 C 46.989 145.114,47.134 142.152,47.384 142.152 C 47.620 142.152,47.779 140.638,47.779 138.401 C 47.779 136.163,47.938 134.650,48.174 134.650 C 48.391 134.650,48.569 133.672,48.569 132.478 C 48.569 131.283,48.746 130.306,48.963 130.306 C 49.181 130.306,49.358 129.595,49.358 128.727 C 49.358 127.858,49.536 127.147,49.753 127.147 C 49.970 127.147,50.148 126.436,50.148 125.568 C 50.148 124.699,50.326 123.988,50.543 123.988 C 50.760 123.988,50.938 123.366,50.938 122.606 C 50.938 121.846,51.115 121.224,51.333 121.224 C 51.550 121.224,51.728 120.691,51.728 120.039 C 51.728 119.388,51.905 118.855,52.122 118.855 C 52.340 118.855,52.517 118.322,52.517 117.670 C 52.517 117.019,52.695 116.486,52.912 116.486 C 53.129 116.486,53.307 116.052,53.307 115.522 C 53.307 114.992,53.485 114.448,53.702 114.314 C 53.919 114.180,54.097 113.745,54.097 113.349 C 54.097 112.952,54.362 112.118,54.687 111.496 C 55.011 110.874,55.278 110.054,55.279 109.674 C 55.280 109.294,55.459 108.983,55.676 108.983 C 55.893 108.983,56.071 108.663,56.071 108.272 C 56.071 107.390,56.954 105.437,57.354 105.432 C 57.517 105.431,57.651 105.074,57.651 104.640 C 57.651 104.205,57.828 103.850,58.045 103.850 C 58.263 103.850,58.440 103.495,58.440 103.060 C 58.440 102.626,58.618 102.270,58.835 102.270 C 59.052 102.270,59.230 101.915,59.230 101.481 C 59.230 101.046,59.408 100.691,59.625 100.691 C 59.842 100.691,60.020 100.336,60.020 99.901 C 60.020 99.467,60.197 99.112,60.415 99.112 C 60.632 99.112,60.809 98.867,60.809 98.568 C 60.809 98.268,61.092 97.789,61.437 97.502 C 61.783 97.216,62.438 96.128,62.893 95.085 C 63.349 94.042,63.866 93.189,64.042 93.189 C 64.219 93.189,64.363 92.872,64.363 92.486 C 64.363 92.100,64.719 91.527,65.153 91.214 C 65.587 90.901,65.943 90.438,65.943 90.184 C 65.943 89.931,66.474 89.304,67.124 88.791 C 67.773 88.278,68.306 87.618,68.308 87.325 C 68.310 87.032,68.845 86.295,69.497 85.686 C 70.148 85.077,70.681 84.372,70.681 84.117 C 70.681 83.863,70.903 83.408,71.175 83.105 C 71.446 82.802,71.858 82.326,72.089 82.047 C 72.320 81.768,73.074 81.096,73.763 80.553 C 74.453 80.010,75.019 79.342,75.021 79.069 C 75.026 78.442,82.692 70.681,83.307 70.681 C 83.558 70.681,84.628 69.793,85.686 68.707 C 86.744 67.621,87.778 66.732,87.985 66.732 C 88.192 66.732,88.781 66.201,89.294 65.551 C 89.807 64.902,90.495 64.369,90.823 64.367 C 91.151 64.365,91.899 63.919,92.484 63.376 C 93.070 62.833,93.784 62.389,94.071 62.389 C 94.359 62.389,94.850 62.034,95.163 61.599 C 95.476 61.165,95.958 60.809,96.234 60.809 C 96.510 60.809,96.958 60.454,97.229 60.020 C 97.500 59.585,98.035 59.230,98.417 59.230 C 98.799 59.230,99.112 59.052,99.112 58.835 C 99.112 58.618,99.467 58.440,99.901 58.440 C 100.336 58.440,100.691 58.263,100.691 58.045 C 100.691 57.828,101.007 57.651,101.394 57.651 C 101.780 57.651,102.352 57.295,102.665 56.861 C 102.978 56.426,103.506 56.065,103.838 56.059 C 104.171 56.052,104.787 55.785,105.209 55.466 C 105.630 55.147,106.297 54.886,106.689 54.886 C 107.082 54.886,107.404 54.709,107.404 54.492 C 107.404 54.274,107.937 54.097,108.588 54.097 C 109.240 54.097,109.773 53.919,109.773 53.702 C 109.773 53.485,110.128 53.307,110.563 53.307 C 110.997 53.307,111.352 53.129,111.352 52.912 C 111.352 52.695,111.708 52.517,112.142 52.517 C 112.577 52.517,112.932 52.340,112.932 52.122 C 112.932 51.905,113.376 51.728,113.919 51.728 C 114.462 51.728,114.906 51.550,114.906 51.333 C 114.906 51.115,115.262 50.938,115.696 50.938 C 116.130 50.938,116.486 50.760,116.486 50.543 C 116.486 50.326,117.019 50.148,117.670 50.148 C 118.322 50.148,118.855 49.970,118.855 49.753 C 118.855 49.536,119.388 49.358,120.039 49.358 C 120.691 49.358,121.224 49.181,121.224 48.963 C 121.224 48.746,121.846 48.569,122.606 48.569 C 123.366 48.569,123.988 48.391,123.988 48.174 C 123.988 47.957,124.521 47.779,125.173 47.779 C 125.824 47.779,126.357 47.627,126.357 47.442 C 126.357 47.257,127.726 46.989,129.400 46.848 C 131.073 46.706,132.619 46.414,132.835 46.198 C 133.051 45.981,134.337 45.805,135.692 45.805 C 137.048 45.805,138.267 45.627,138.401 45.410 C 138.535 45.192,140.145 45.015,141.978 45.015 C 143.937 45.015,145.311 44.852,145.311 44.620 C 145.311 44.373,147.672 44.225,151.606 44.225 C 155.376 44.225,157.998 44.383,158.144 44.620 C 158.279 44.838,160.057 45.015,162.116 45.015 C 164.338 45.015,165.844 45.174,165.844 45.410 C 165.844 45.627,166.811 45.805,167.992 45.805 C 169.174 45.805,170.236 45.959,170.353 46.148 C 170.470 46.336,171.991 46.615,173.733 46.767 C 175.475 46.919,176.900 47.209,176.900 47.411 C 176.900 47.613,177.611 47.779,178.480 47.779 C 179.348 47.779,180.059 47.957,180.059 48.174 C 180.059 48.391,180.592 48.569,181.244 48.569 C 181.895 48.569,182.428 48.746,182.428 48.963 C 182.428 49.181,182.873 49.358,183.416 49.358 C 183.959 49.358,184.403 49.536,184.403 49.753 C 184.403 49.970,184.936 50.148,185.587 50.148 C 186.239 50.148,186.772 50.326,186.772 50.543 C 186.772 50.760,187.127 50.938,187.562 50.938 C 187.996 50.938,188.351 51.115,188.351 51.333 C 188.351 51.550,188.885 51.728,189.536 51.728 C 190.188 51.728,190.722 51.861,190.724 52.024 C 190.727 52.355,192.619 53.307,193.273 53.307 C 193.505 53.307,194.757 53.818,196.057 54.443 C 197.357 55.068,199.131 55.903,200.000 56.299 C 200.869 56.694,201.867 57.338,202.218 57.729 C 202.569 58.120,203.147 58.440,203.501 58.440 C 203.856 58.440,204.146 58.618,204.146 58.835 C 204.146 59.052,204.501 59.230,204.936 59.230 C 205.370 59.230,205.726 59.408,205.726 59.625 C 205.726 59.842,206.042 60.020,206.428 60.020 C 206.815 60.020,207.387 60.375,207.700 60.809 C 208.013 61.244,208.469 61.599,208.713 61.599 C 208.957 61.599,209.479 61.955,209.872 62.389 C 210.265 62.823,210.804 63.179,211.069 63.179 C 211.335 63.179,211.773 63.445,212.043 63.771 C 212.314 64.097,212.794 64.363,213.110 64.363 C 213.426 64.363,214.368 65.074,215.202 65.943 C 216.037 66.811,216.867 67.523,217.047 67.524 C 217.227 67.525,218.399 68.591,219.652 69.893 C 220.905 71.195,222.200 72.261,222.529 72.261 C 222.859 72.261,223.877 73.078,224.792 74.076 C 225.707 75.075,227.389 76.848,228.529 78.016 C 229.669 79.185,230.602 80.237,230.602 80.355 C 230.602 80.473,231.579 81.547,232.774 82.742 C 233.968 83.936,234.946 85.143,234.946 85.423 C 234.946 85.704,235.479 86.444,236.130 87.068 C 236.782 87.692,237.315 88.435,237.315 88.718 C 237.315 89.001,237.670 89.455,238.105 89.726 C 238.539 89.998,238.894 90.493,238.894 90.827 C 238.894 91.161,239.250 91.691,239.684 92.004 C 240.118 92.317,240.474 92.850,240.474 93.189 C 240.474 93.527,240.829 94.060,241.264 94.373 C 241.698 94.686,242.053 95.259,242.053 95.645 C 242.053 96.233,242.406 96.347,244.225 96.347 C 245.420 96.347,246.397 96.170,246.397 95.953 C 246.397 95.735,246.713 95.558,247.099 95.558 C 247.486 95.558,248.058 95.202,248.371 94.768 C 248.684 94.334,249.166 93.978,249.442 93.978 C 249.718 93.978,250.166 93.623,250.437 93.189 C 250.708 92.754,251.204 92.399,251.538 92.399 C 251.872 92.399,252.402 92.043,252.715 91.609 C 253.028 91.175,253.600 90.819,253.986 90.819 C 254.373 90.819,254.689 90.642,254.689 90.424 C 254.689 90.207,255.023 90.030,255.430 90.030 C 255.838 90.030,256.393 89.763,256.663 89.437 C 256.934 89.112,257.398 88.845,257.696 88.845 C 257.993 88.845,258.458 88.490,258.729 88.055 C 259.001 87.621,259.496 87.266,259.830 87.266 C 260.164 87.266,260.694 86.910,261.007 86.476 C 261.320 86.041,261.853 85.686,262.192 85.686 C 262.530 85.686,263.063 85.331,263.376 84.896 C 263.689 84.462,264.196 84.107,264.503 84.107 C 264.809 84.107,265.348 83.783,265.699 83.388 C 266.050 82.993,266.604 82.547,266.930 82.397 C 267.256 82.246,268.055 81.783,268.707 81.367 C 269.358 80.951,270.163 80.598,270.495 80.582 C 270.827 80.566,271.355 80.197,271.668 79.763 C 271.981 79.329,272.488 78.973,272.795 78.973 C 273.102 78.973,273.642 78.662,273.997 78.282 C 274.351 77.902,274.994 77.396,275.425 77.156 C 276.853 76.364,276.289 70.681,274.782 70.681 C 274.590 70.681,274.432 70.365,274.432 69.979 C 274.432 69.592,274.077 69.020,273.643 68.707 C 273.208 68.394,272.853 67.861,272.853 67.522 C 272.853 67.184,272.498 66.651,272.063 66.338 C 271.629 66.025,271.273 65.612,271.273 65.422 C 271.273 65.231,270.740 64.577,270.089 63.968 C 269.437 63.360,268.904 62.655,268.904 62.402 C 268.904 62.148,268.284 61.287,267.526 60.487 C 266.767 59.687,266.145 58.839,266.144 58.603 C 266.142 58.366,265.252 57.367,264.166 56.381 C 263.080 55.396,262.192 54.380,262.192 54.123 C 262.192 53.568,249.028 40.276,248.478 40.276 C 248.270 40.276,247.090 39.299,245.857 38.105 C 244.624 36.910,243.395 35.933,243.126 35.933 C 242.858 35.933,242.416 35.577,242.145 35.143 C 241.874 34.709,241.458 34.353,241.221 34.353 C 240.984 34.353,240.293 33.820,239.684 33.169 C 239.075 32.517,238.375 31.984,238.126 31.984 C 237.878 31.984,237.196 31.540,236.611 30.997 C 236.025 30.454,235.276 30.010,234.946 30.010 C 234.616 30.010,234.124 29.654,233.853 29.220 C 233.581 28.786,233.134 28.430,232.858 28.430 C 232.582 28.430,232.100 28.075,231.787 27.641 C 231.474 27.206,230.941 26.851,230.602 26.851 C 230.264 26.851,229.731 26.496,229.418 26.061 C 229.105 25.627,228.532 25.271,228.146 25.271 C 227.759 25.271,227.443 25.094,227.443 24.877 C 227.443 24.659,227.153 24.482,226.799 24.482 C 226.444 24.482,225.866 24.162,225.515 23.771 C 224.777 22.949,222.287 21.718,221.362 21.718 C 221.015 21.718,220.731 21.540,220.731 21.323 C 220.731 21.106,220.375 20.928,219.941 20.928 C 219.506 20.928,219.151 20.750,219.151 20.533 C 219.151 20.316,218.796 20.138,218.361 20.138 C 217.927 20.138,217.572 19.994,217.572 19.817 C 217.572 19.640,216.950 19.252,216.190 18.954 C 215.429 18.655,214.808 18.267,214.808 18.090 C 214.808 17.914,214.452 17.769,214.018 17.769 C 213.583 17.769,213.228 17.591,213.228 17.374 C 213.228 17.157,212.873 16.979,212.438 16.979 C 212.004 16.979,211.649 16.802,211.649 16.584 C 211.649 16.367,211.293 16.190,210.859 16.190 C 210.424 16.190,210.069 16.012,210.069 15.795 C 210.069 15.577,209.731 15.400,209.317 15.400 C 208.903 15.400,207.881 15.062,207.046 14.650 C 205.411 13.842,201.636 12.636,200.744 12.636 C 200.444 12.636,200.197 12.458,200.197 12.241 C 200.197 12.024,199.753 11.846,199.210 11.846 C 198.667 11.846,198.223 11.668,198.223 11.451 C 198.223 11.234,197.690 11.056,197.038 11.056 C 196.387 11.056,195.854 10.879,195.854 10.661 C 195.854 10.444,195.143 10.267,194.274 10.267 C 193.406 10.267,192.695 10.089,192.695 9.872 C 192.695 9.654,192.261 9.477,191.731 9.477 C 191.201 9.477,190.657 9.299,190.523 9.082 C 190.389 8.865,189.668 8.687,188.920 8.687 C 188.173 8.687,187.562 8.509,187.562 8.292 C 187.562 8.075,186.851 7.897,185.982 7.897 C 185.114 7.897,184.403 7.720,184.403 7.502 C 184.403 7.285,183.425 7.108,182.231 7.108 C 181.037 7.108,180.059 6.930,180.059 6.713 C 180.059 6.496,179.171 6.318,178.085 6.318 C 176.999 6.318,176.111 6.140,176.111 5.923 C 176.111 5.702,175.018 5.528,173.623 5.528 C 172.255 5.528,170.937 5.330,170.694 5.087 C 170.241 4.634,145.241 4.276,137.417 4.610 M269.694 95.953 C 269.694 96.170,269.961 96.347,270.286 96.347 C 270.612 96.347,270.879 96.170,270.879 95.953 C 270.879 95.735,270.612 95.558,270.286 95.558 C 269.961 95.558,269.694 95.735,269.694 95.953 M142.152 96.916 C 142.152 97.229,142.311 97.584,142.506 97.704 C 142.912 97.955,143.402 96.939,143.046 96.584 C 142.622 96.160,142.152 96.335,142.152 96.916 M143.731 100.917 C 143.731 101.336,144.952 102.366,145.179 102.139 C 145.303 102.015,145.130 101.638,144.794 101.302 C 144.167 100.675,143.731 100.517,143.731 100.917 M147.680 103.850 C 147.680 104.284,147.858 104.640,148.075 104.640 C 148.292 104.640,148.470 104.284,148.470 103.850 C 148.470 103.416,148.292 103.060,148.075 103.060 C 147.858 103.060,147.680 103.416,147.680 103.850 M147.680 107.206 C 147.680 107.749,147.858 108.193,148.075 108.193 C 148.292 108.193,148.470 107.749,148.470 107.206 C 148.470 106.663,148.292 106.219,148.075 106.219 C 147.858 106.219,147.680 106.663,147.680 107.206 M252.320 107.404 C 252.320 107.621,252.586 107.799,252.912 107.799 C 253.238 107.799,253.504 107.621,253.504 107.404 C 253.504 107.187,253.238 107.009,252.912 107.009 C 252.586 107.009,252.320 107.187,252.320 107.404 M250.346 111.550 C 250.346 111.876,250.523 112.142,250.740 112.142 C 250.958 112.142,251.135 111.876,251.135 111.550 C 251.135 111.224,250.958 110.958,250.740 110.958 C 250.523 110.958,250.346 111.224,250.346 111.550 M292.201 112.702 C 292.201 113.045,292.483 113.327,292.827 113.327 C 293.524 113.327,293.402 112.477,292.670 112.233 C 292.412 112.147,292.201 112.358,292.201 112.702 M293.781 119.447 C 293.781 119.773,293.959 120.039,294.176 120.039 C 294.393 120.039,294.571 119.773,294.571 119.447 C 294.571 119.121,294.393 118.855,294.176 118.855 C 293.959 118.855,293.781 119.121,293.781 119.447 M133.070 120.829 C 133.070 121.046,133.337 121.224,133.662 121.224 C 133.988 121.224,134.255 121.046,134.255 120.829 C 134.255 120.612,133.988 120.434,133.662 120.434 C 133.337 120.434,133.070 120.612,133.070 120.829 M181.244 123.819 C 181.244 123.943,181.519 124.320,181.855 124.656 C 182.615 125.416,183.119 125.018,182.436 124.195 C 181.943 123.601,181.244 123.380,181.244 123.819 M183.037 125.147 C 182.753 125.606,183.901 126.991,184.264 126.627 C 184.385 126.507,184.217 126.029,183.892 125.564 C 183.520 125.034,183.203 124.879,183.037 125.147 M295.360 128.727 C 295.360 129.161,295.538 129.516,295.755 129.516 C 295.972 129.516,296.150 129.161,296.150 128.727 C 296.150 128.292,295.972 127.937,295.755 127.937 C 295.538 127.937,295.360 128.292,295.360 128.727 M255.479 129.714 C 255.479 130.039,255.656 130.306,255.874 130.306 C 256.091 130.306,256.269 130.039,256.269 129.714 C 256.269 129.388,256.091 129.121,255.874 129.121 C 255.656 129.121,255.479 129.388,255.479 129.714 M256.269 134.057 C 256.269 134.383,256.446 134.650,256.663 134.650 C 256.881 134.650,257.058 134.383,257.058 134.057 C 257.058 133.731,256.881 133.465,256.663 133.465 C 256.446 133.465,256.269 133.731,256.269 134.057 M296.150 135.834 C 296.150 136.486,296.328 137.019,296.545 137.019 C 296.762 137.019,296.940 136.486,296.940 135.834 C 296.940 135.183,296.762 134.650,296.545 134.650 C 296.328 134.650,296.150 135.183,296.150 135.834 M257.058 139.585 C 257.058 139.911,257.236 140.178,257.453 140.178 C 257.670 140.178,257.848 139.911,257.848 139.585 C 257.848 139.260,257.670 138.993,257.453 138.993 C 257.236 138.993,257.058 139.260,257.058 139.585 M159.711 144.541 C 159.336 145.148,159.850 145.540,160.357 145.033 C 160.640 144.749,160.647 144.529,160.378 144.362 C 160.156 144.225,159.857 144.306,159.711 144.541 M171.364 149.467 C 171.090 149.798,170.953 150.157,171.062 150.266 C 171.420 150.623,172.557 149.976,172.557 149.415 C 172.557 148.690,171.988 148.715,171.364 149.467 M115.696 151.803 C 115.696 152.440,116.255 152.912,116.601 152.567 C 116.909 152.259,116.484 151.234,116.049 151.234 C 115.855 151.234,115.696 151.490,115.696 151.803 M195.064 152.790 C 195.064 153.237,195.242 153.603,195.459 153.603 C 195.676 153.603,195.854 153.347,195.854 153.034 C 195.854 152.721,195.676 152.355,195.459 152.221 C 195.242 152.087,195.064 152.343,195.064 152.790 M257.268 160.037 C 257.099 160.426,257.071 160.856,257.207 160.991 C 257.608 161.392,257.931 160.829,257.747 160.051 C 257.583 159.361,257.562 159.360,257.268 160.037 M296.150 162.488 C 296.150 163.031,296.328 163.475,296.545 163.475 C 296.762 163.475,296.940 163.031,296.940 162.488 C 296.940 161.945,296.762 161.500,296.545 161.500 C 296.328 161.500,296.150 161.945,296.150 162.488 M111.352 163.870 C 111.352 164.087,111.619 164.265,111.945 164.265 C 112.270 164.265,112.537 164.087,112.537 163.870 C 112.537 163.653,112.270 163.475,111.945 163.475 C 111.619 163.475,111.352 163.653,111.352 163.870 M199.013 163.870 C 199.013 164.087,199.279 164.265,199.605 164.265 C 199.931 164.265,200.197 164.087,200.197 163.870 C 200.197 163.653,199.931 163.475,199.605 163.475 C 199.279 163.475,199.013 163.653,199.013 163.870 M108.983 164.659 C 108.983 164.877,109.250 165.054,109.576 165.054 C 109.901 165.054,110.168 164.877,110.168 164.659 C 110.168 164.442,109.901 164.265,109.576 164.265 C 109.250 164.265,108.983 164.442,108.983 164.659 M104.640 169.990 C 104.640 170.316,104.817 170.582,105.035 170.582 C 105.252 170.582,105.429 170.316,105.429 169.990 C 105.429 169.664,105.252 169.398,105.035 169.398 C 104.817 169.398,104.640 169.664,104.640 169.990 M255.479 170.780 C 255.479 171.106,255.656 171.372,255.874 171.372 C 256.091 171.372,256.269 171.106,256.269 170.780 C 256.269 170.454,256.091 170.188,255.874 170.188 C 255.656 170.188,255.479 170.454,255.479 170.780 M293.781 178.677 C 293.781 179.003,293.959 179.269,294.176 179.269 C 294.393 179.269,294.571 179.003,294.571 178.677 C 294.571 178.351,294.393 178.085,294.176 178.085 C 293.959 178.085,293.781 178.351,293.781 178.677 M130.800 178.906 C 131.269 179.180,131.712 179.180,132.182 178.906 C 132.745 178.578,132.618 178.504,131.491 178.504 C 130.363 178.504,130.236 178.578,130.800 178.906 M253.110 179.862 C 253.110 180.188,253.287 180.454,253.504 180.454 C 253.722 180.454,253.899 180.188,253.899 179.862 C 253.899 179.536,253.722 179.269,253.504 179.269 C 253.287 179.269,253.110 179.536,253.110 179.862 M247.976 194.077 C 247.976 194.403,248.154 194.669,248.371 194.669 C 248.588 194.669,248.766 194.403,248.766 194.077 C 248.766 193.751,248.588 193.485,248.371 193.485 C 248.154 193.485,247.976 193.751,247.976 194.077 M288.648 197.631 C 288.648 197.957,288.825 198.223,289.042 198.223 C 289.260 198.223,289.437 197.957,289.437 197.631 C 289.437 197.305,289.260 197.038,289.042 197.038 C 288.825 197.038,288.648 197.305,288.648 197.631 M200.203 199.530 C 200.200 200.433,200.355 200.936,200.592 200.790 C 201.091 200.481,201.091 199.390,200.592 198.618 C 200.308 198.178,200.208 198.413,200.203 199.530 M225.080 205.035 C 225.085 205.753,225.159 205.810,225.469 205.331 C 225.964 204.565,225.964 204.146,225.469 204.146 C 225.252 204.146,225.077 204.546,225.080 205.035 M100.494 209.279 C 100.336 209.535,102.069 209.674,105.406 209.674 C 108.581 209.674,110.563 209.522,110.563 209.279 C 110.563 209.037,108.662 208.885,105.650 208.885 C 102.801 208.885,100.635 209.050,100.494 209.279 M201.777 209.279 C 201.777 209.497,202.132 209.674,202.567 209.674 C 203.001 209.674,203.356 209.497,203.356 209.279 C 203.356 209.062,203.001 208.885,202.567 208.885 C 202.132 208.885,201.777 209.062,201.777 209.279 M208.490 209.279 C 208.490 209.497,209.389 209.674,210.487 209.674 C 211.718 209.674,212.391 209.523,212.241 209.279 C 212.107 209.062,211.208 208.885,210.243 208.885 C 209.279 208.885,208.490 209.062,208.490 209.279 M86.087 211.917 C 86.098 212.522,86.826 213.404,87.094 213.137 C 87.240 212.990,87.072 212.583,86.720 212.231 C 86.369 211.880,86.084 211.738,86.087 211.917 M88.055 214.195 C 88.055 214.610,90.059 216.490,90.273 216.275 C 90.402 216.146,90.053 215.585,89.497 215.029 C 88.543 214.075,88.055 213.793,88.055 214.195 M91.306 217.966 C 91.847 218.833,92.228 218.956,92.584 218.381 C 92.711 218.175,92.467 217.819,92.041 217.591 C 90.918 216.990,90.750 217.076,91.306 217.966 M279.566 218.164 C 279.566 218.490,279.743 218.756,279.961 218.756 C 280.178 218.756,280.355 218.490,280.355 218.164 C 280.355 217.838,280.178 217.572,279.961 217.572 C 279.743 217.572,279.566 217.838,279.566 218.164 M82.527 229.615 C 82.527 229.941,82.601 230.207,82.692 230.207 C 82.783 230.207,83.138 230.315,83.482 230.447 C 83.831 230.581,84.107 230.484,84.107 230.226 C 84.107 229.973,83.929 229.876,83.712 230.010 C 83.495 230.144,83.317 229.977,83.317 229.638 C 83.317 229.300,83.139 229.023,82.922 229.023 C 82.705 229.023,82.527 229.289,82.527 229.615 M112.142 231.787 C 112.142 232.047,125.370 232.182,151.037 232.182 C 176.703 232.182,189.931 232.047,189.931 231.787 C 189.931 231.526,176.703 231.392,151.037 231.392 C 125.370 231.392,112.142 231.526,112.142 231.787 M190.721 231.787 C 190.721 232.004,190.987 232.182,191.313 232.182 C 191.639 232.182,191.905 232.004,191.905 231.787 C 191.905 231.570,191.639 231.392,191.313 231.392 C 190.987 231.392,190.721 231.570,190.721 231.787 M86.871 233.366 C 86.871 233.583,87.137 233.761,87.463 233.761 C 87.789 233.761,88.055 233.583,88.055 233.366 C 88.055 233.149,87.789 232.971,87.463 232.971 C 87.137 232.971,86.871 233.149,86.871 233.366 M269.694 233.959 C 269.694 234.284,269.872 234.551,270.089 234.551 C 270.306 234.551,270.484 234.284,270.484 233.959 C 270.484 233.633,270.306 233.366,270.089 233.366 C 269.872 233.366,269.694 233.633,269.694 233.959 M269.694 235.566 C 269.694 235.986,270.914 237.016,271.142 236.788 C 271.266 236.664,271.092 236.288,270.756 235.952 C 270.129 235.325,269.694 235.167,269.694 235.566 M274.827 240.679 C 274.827 241.179,280.045 246.040,280.440 245.908 C 280.713 245.817,280.621 245.542,280.201 245.190 C 278.441 243.716,276.012 241.204,276.012 240.858 C 276.012 240.647,275.745 240.474,275.420 240.474 C 275.094 240.474,274.827 240.566,274.827 240.679 M126.752 253.110 C 126.752 253.327,127.019 253.504,127.345 253.504 C 127.670 253.504,127.937 253.327,127.937 253.110 C 127.937 252.892,127.670 252.715,127.345 252.715 C 127.019 252.715,126.752 252.892,126.752 253.110 M176.900 253.110 C 176.900 253.327,177.167 253.504,177.493 253.504 C 177.818 253.504,178.085 253.327,178.085 253.110 C 178.085 252.892,177.818 252.715,177.493 252.715 C 177.167 252.715,176.900 252.892,176.900 253.110 M174.317 253.531 C 173.854 254.280,174.530 254.465,175.217 253.777 C 175.833 253.162,175.834 253.110,175.231 253.110 C 174.872 253.110,174.461 253.299,174.317 253.531 M292.201 253.702 C 292.201 254.064,292.392 254.296,292.626 254.218 C 292.859 254.141,293.050 253.908,293.050 253.702 C 293.050 253.496,292.859 253.263,292.626 253.185 C 292.392 253.107,292.201 253.340,292.201 253.702 M134.118 254.508 C 134.377 255.182,135.105 255.099,135.349 254.368 C 135.436 254.108,135.145 253.899,134.695 253.899 C 134.127 253.899,133.955 254.081,134.118 254.508 M139.216 255.043 C 139.096 255.237,139.246 255.491,139.549 255.608 C 140.128 255.830,140.573 255.574,140.573 255.018 C 140.573 254.577,139.492 254.597,139.216 255.043 M164.351 255.145 C 164.556 255.760,165.439 255.867,165.470 255.281 C 165.481 255.064,165.194 254.825,164.832 254.750 C 164.421 254.665,164.240 254.813,164.351 255.145 M149.654 255.874 C 149.654 256.104,150.971 256.269,152.813 256.269 C 154.656 256.269,155.972 256.104,155.972 255.874 C 155.972 255.643,154.656 255.479,152.813 255.479 C 150.971 255.479,149.654 255.643,149.654 255.874 M237.315 268.115 C 237.315 268.332,237.448 268.511,237.611 268.513 C 237.774 268.515,238.583 269.157,239.409 269.940 C 240.235 270.722,241.015 271.259,241.141 271.132 C 241.268 271.006,240.818 270.408,240.142 269.804 C 237.574 267.515,237.315 267.359,237.315 268.115 M212.043 281.540 C 212.043 281.757,212.310 281.935,212.636 281.935 C 212.962 281.935,213.228 281.757,213.228 281.540 C 213.228 281.323,212.962 281.145,212.636 281.145 C 212.310 281.145,212.043 281.323,212.043 281.540 M93.189 282.330 C 93.189 282.547,93.455 282.725,93.781 282.725 C 94.107 282.725,94.373 282.547,94.373 282.330 C 94.373 282.113,94.107 281.935,93.781 281.935 C 93.455 281.935,93.189 282.113,93.189 282.330 M114.906 289.832 C 114.906 290.049,115.173 290.227,115.499 290.227 C 115.824 290.227,116.091 290.049,116.091 289.832 C 116.091 289.615,115.824 289.437,115.499 289.437 C 115.173 289.437,114.906 289.615,114.906 289.832 M121.224 291.412 C 121.224 291.629,121.491 291.807,121.816 291.807 C 122.142 291.807,122.409 291.629,122.409 291.412 C 122.409 291.194,122.142 291.017,121.816 291.017 C 121.491 291.017,121.224 291.194,121.224 291.412 M182.428 291.412 C 182.428 291.629,182.695 291.807,183.021 291.807 C 183.346 291.807,183.613 291.629,183.613 291.412 C 183.613 291.194,183.346 291.017,183.021 291.017 C 182.695 291.017,182.428 291.194,182.428 291.412 M135.439 293.781 C 135.439 293.998,135.695 294.176,136.008 294.176 C 136.321 294.176,136.687 293.998,136.821 293.781 C 136.956 293.564,136.699 293.386,136.252 293.386 C 135.805 293.386,135.439 293.564,135.439 293.781 M168.016 293.781 C 168.150 293.998,168.516 294.176,168.829 294.176 C 169.142 294.176,169.398 293.998,169.398 293.781 C 169.398 293.564,169.032 293.386,168.585 293.386 C 168.138 293.386,167.882 293.564,168.016 293.781 M144.795 294.033 C 144.321 294.508,144.962 294.965,146.101 294.965 C 147.520 294.965,147.974 294.347,146.787 294.029 C 145.639 293.721,145.106 293.722,144.795 294.033 M159.131 294.151 L 158.144 294.457 159.199 294.746 C 160.447 295.088,161.511 294.924,161.620 294.373 C 161.719 293.871,160.413 293.754,159.131 294.151 M271.273 313.750 C 271.273 314.169,272.494 315.199,272.721 314.972 C 272.845 314.848,272.672 314.471,272.336 314.135 C 271.709 313.508,271.273 313.350,271.273 313.750 M392.892 363.080 C 392.892 363.406,393.070 363.672,393.287 363.672 C 393.504 363.672,393.682 363.406,393.682 363.080 C 393.682 362.754,393.504 362.488,393.287 362.488 C 393.070 362.488,392.892 362.754,392.892 363.080 M391.313 369.003 C 391.313 369.329,391.491 369.595,391.708 369.595 C 391.925 369.595,392.103 369.329,392.103 369.003 C 392.103 368.677,391.925 368.411,391.708 368.411 C 391.491 368.411,391.313 368.677,391.313 369.003 M384.464 379.399 C 383.080 380.928,383.751 381.537,385.210 380.077 C 385.744 379.544,386.180 379.011,386.180 378.893 C 386.180 378.401,385.071 378.729,384.464 379.399 M338.949 380.877 C 339.082 381.223,339.191 381.580,339.191 381.671 C 339.191 381.762,339.368 381.836,339.585 381.836 C 340.229 381.836,340.035 380.757,339.344 380.492 C 338.878 380.313,338.772 380.416,338.949 380.877 M375.913 385.785 C 375.913 386.002,376.180 386.180,376.505 386.180 C 376.831 386.180,377.098 386.002,377.098 385.785 C 377.098 385.568,376.831 385.390,376.505 385.390 C 376.180 385.390,375.913 385.568,375.913 385.785 M355.181 388.552 C 355.046 388.770,355.221 389.059,355.569 389.193 C 356.326 389.483,356.747 389.163,356.383 388.575 C 356.056 388.045,355.501 388.034,355.181 388.552 M366.831 388.944 C 366.831 389.161,367.098 389.339,367.423 389.339 C 367.749 389.339,368.016 389.161,368.016 388.944 C 368.016 388.727,367.749 388.549,367.423 388.549 C 367.098 388.549,366.831 388.727,366.831 388.944 " stroke="none" fill="#635cfb" fill-rule="evenodd"></path><path id="path1" d="M153.609 72.507 C 153.606 72.752,153.070 73.058,152.419 73.189 C 151.701 73.332,151.234 73.672,151.234 74.051 C 151.234 74.395,151.056 74.567,150.839 74.432 C 150.622 74.298,150.444 74.554,150.444 75.001 C 150.444 75.449,150.267 75.814,150.049 75.814 C 149.800 75.814,149.654 78.578,149.654 83.317 L 149.654 90.819 148.493 90.819 C 147.854 90.819,147.222 90.997,147.088 91.214 C 146.954 91.431,146.582 91.609,146.262 91.609 C 145.941 91.609,145.075 92.214,144.335 92.953 C 141.723 95.566,143.126 102.270,146.285 102.270 C 146.618 102.270,146.890 102.448,146.890 102.665 C 146.890 102.883,147.246 103.060,147.680 103.060 C 148.389 103.060,148.470 103.323,148.470 105.627 C 148.470 107.697,148.350 108.193,147.849 108.193 C 147.159 108.193,146.101 109.110,146.101 109.708 C 146.101 109.920,145.745 110.001,145.311 109.887 C 144.576 109.695,144.521 109.875,144.521 112.491 C 144.521 115.038,144.447 115.301,143.731 115.301 C 143.297 115.301,142.942 115.479,142.942 115.696 C 142.942 115.913,142.675 116.091,142.349 116.091 C 142.024 116.091,141.757 116.272,141.757 116.493 C 141.757 116.727,141.337 116.790,140.757 116.645 C 140.022 116.460,139.566 116.615,139.033 117.229 C 138.634 117.689,138.018 118.065,137.663 118.065 C 137.309 118.065,137.019 118.243,137.019 118.460 C 137.019 118.677,136.729 118.855,136.374 118.855 C 135.725 118.855,134.255 120.267,134.255 120.890 C 134.255 121.074,133.958 121.224,133.595 121.224 C 133.232 121.224,132.177 121.979,131.252 122.902 C 130.326 123.825,128.854 125.202,127.981 125.962 C 127.108 126.723,126.386 127.584,126.376 127.877 C 126.366 128.170,125.811 128.920,125.143 129.544 C 124.475 130.168,124.047 130.871,124.192 131.106 C 124.337 131.340,124.084 131.855,123.630 132.249 C 123.175 132.643,122.804 133.167,122.804 133.413 C 122.804 133.659,122.626 133.860,122.409 133.860 C 122.192 133.860,122.014 134.215,122.014 134.650 C 122.014 135.084,121.836 135.439,121.619 135.439 C 121.402 135.439,121.224 135.795,121.224 136.229 C 121.224 136.663,121.046 137.019,120.829 137.019 C 120.612 137.019,120.434 137.374,120.434 137.808 C 120.434 138.243,120.257 138.598,120.039 138.598 C 119.822 138.598,119.645 138.954,119.645 139.388 C 119.645 139.822,119.467 140.178,119.250 140.178 C 119.033 140.178,118.855 140.622,118.855 141.165 C 118.855 141.708,118.677 142.152,118.460 142.152 C 118.243 142.152,118.065 142.685,118.065 143.337 C 118.065 143.988,117.887 144.521,117.670 144.521 C 117.453 144.521,117.275 145.232,117.275 146.101 C 117.275 146.969,117.116 147.680,116.920 147.680 C 116.725 147.680,116.565 148.791,116.565 150.148 C 116.565 151.739,116.410 152.581,116.130 152.517 C 115.830 152.449,115.696 154.130,115.696 157.947 L 115.696 163.475 114.116 163.475 C 113.248 163.475,112.537 163.653,112.537 163.870 C 112.537 164.087,112.004 164.265,111.352 164.265 C 110.701 164.265,110.168 164.442,110.168 164.659 C 110.168 164.877,109.805 165.054,109.362 165.054 C 108.102 165.054,105.429 168.017,105.429 169.414 C 105.429 170.057,105.252 170.582,105.035 170.582 C 104.817 170.582,104.640 171.382,104.640 172.359 L 104.640 174.136 97.730 174.136 C 93.386 174.136,90.819 174.283,90.819 174.531 C 90.819 174.748,90.553 174.926,90.227 174.926 C 89.901 174.926,89.635 175.104,89.635 175.321 C 89.635 175.538,89.298 175.716,88.887 175.716 C 87.737 175.716,85.686 177.842,85.686 179.033 C 85.686 179.597,85.508 180.059,85.291 180.059 C 85.059 180.059,84.896 181.441,84.896 183.416 L 84.896 186.772 77.394 186.772 L 69.891 186.772 69.891 187.957 C 69.891 188.608,70.069 189.141,70.286 189.141 C 70.503 189.141,70.681 189.497,70.681 189.931 C 70.681 190.365,70.859 190.721,71.076 190.721 C 71.293 190.721,71.471 191.064,71.471 191.484 C 71.471 191.905,71.832 192.361,72.277 192.503 C 72.854 192.686,73.015 192.975,72.843 193.517 C 72.708 193.941,72.788 194.274,73.024 194.274 C 73.256 194.274,73.445 194.630,73.445 195.064 C 73.445 195.499,73.623 195.854,73.840 195.854 C 74.057 195.854,74.235 196.170,74.235 196.556 C 74.235 196.943,74.590 197.515,75.025 197.828 C 75.459 198.141,75.814 198.702,75.814 199.073 C 75.814 199.445,76.170 199.862,76.604 200.000 C 77.038 200.138,77.394 200.594,77.394 201.014 C 77.394 201.433,77.572 201.777,77.789 201.777 C 78.006 201.777,78.184 202.310,78.184 202.962 C 78.184 203.613,78.361 204.146,78.578 204.146 C 78.796 204.146,78.973 204.410,78.973 204.731 C 78.973 205.053,79.773 206.151,80.750 207.171 C 81.728 208.191,82.527 209.184,82.527 209.378 C 82.527 210.068,83.671 210.859,84.671 210.859 C 85.451 210.859,85.693 211.064,85.717 211.747 C 85.734 212.236,85.838 212.415,85.946 212.146 C 86.207 211.501,87.266 212.506,87.266 213.397 C 87.266 213.739,87.540 214.018,87.876 214.018 C 88.671 214.018,90.536 215.886,90.232 216.378 C 90.103 216.587,90.640 217.026,91.424 217.354 C 92.209 217.682,92.738 218.131,92.601 218.353 C 92.464 218.575,92.534 218.756,92.757 218.756 C 92.980 218.756,93.784 219.378,94.544 220.138 C 95.304 220.898,96.133 221.520,96.387 221.520 C 96.893 221.520,98.322 223.023,98.322 223.555 C 98.322 223.739,98.606 223.889,98.953 223.889 C 99.300 223.889,100.082 224.423,100.691 225.074 C 101.300 225.726,102.006 226.259,102.260 226.259 C 102.514 226.259,102.988 226.525,103.314 226.851 C 103.640 227.177,104.249 227.443,104.668 227.443 C 105.087 227.443,105.429 227.621,105.429 227.838 C 105.429 228.055,105.773 228.233,106.193 228.233 C 106.612 228.233,107.068 228.588,107.206 229.023 C 107.344 229.457,107.800 229.812,108.220 229.812 C 108.640 229.812,108.983 229.990,108.983 230.207 C 108.983 230.424,109.339 230.602,109.773 230.602 C 110.207 230.602,110.563 230.780,110.563 230.997 C 110.563 231.891,194.023 231.500,194.669 230.602 C 194.982 230.168,195.555 229.812,195.941 229.812 C 196.327 229.812,196.644 229.635,196.644 229.418 C 196.644 229.200,196.999 229.023,197.433 229.023 C 197.868 229.023,198.223 228.881,198.223 228.709 C 198.223 228.536,199.023 228.065,200.000 227.662 C 200.977 227.259,201.777 226.778,201.777 226.594 C 201.777 226.410,202.093 226.259,202.479 226.259 C 202.866 226.259,203.438 225.903,203.751 225.469 C 204.064 225.035,204.565 224.679,204.865 224.679 C 205.164 224.679,205.924 224.127,206.554 223.453 C 207.194 222.768,207.705 222.463,207.712 222.762 C 207.719 223.084,207.901 222.992,208.168 222.532 C 208.905 221.261,211.187 219.151,211.824 219.151 C 212.381 219.151,213.464 218.130,218.600 212.766 C 219.708 211.609,221.174 210.158,221.857 209.542 C 222.541 208.926,223.100 208.252,223.100 208.043 C 223.100 207.835,223.544 207.220,224.087 206.677 C 224.630 206.134,225.074 205.414,225.074 205.076 C 225.074 204.739,225.607 203.965,226.259 203.356 C 226.910 202.748,227.443 201.978,227.443 201.645 C 227.443 201.313,227.799 200.928,228.233 200.790 C 228.729 200.632,229.023 200.192,229.023 199.605 C 229.023 199.018,229.316 198.578,229.812 198.421 C 230.247 198.283,230.602 197.826,230.602 197.407 C 230.602 196.987,230.801 196.644,231.043 196.644 C 231.290 196.644,231.393 196.295,231.277 195.854 C 231.164 195.420,231.245 195.064,231.457 195.064 C 232.387 195.064,233.998 192.302,233.629 191.340 C 233.498 190.999,233.563 190.721,233.773 190.721 C 233.984 190.721,234.156 190.365,234.156 189.931 C 234.156 189.497,234.334 189.141,234.551 189.141 C 234.768 189.141,234.946 188.608,234.946 187.957 L 234.946 186.772 230.800 186.772 L 226.654 186.772 226.654 183.021 C 226.654 180.783,226.494 179.269,226.259 179.269 C 226.041 179.269,225.864 178.968,225.864 178.600 C 225.864 177.696,223.915 175.716,223.026 175.716 C 222.632 175.716,222.310 175.538,222.310 175.321 C 222.310 175.104,221.955 174.926,221.520 174.926 C 221.086 174.926,220.731 174.748,220.731 174.531 C 220.731 174.283,218.230 174.136,214.018 174.136 L 207.305 174.136 207.305 171.988 C 207.305 170.806,207.127 169.729,206.910 169.595 C 206.693 169.461,206.515 169.006,206.515 168.585 C 206.515 168.163,206.344 167.818,206.134 167.818 C 205.924 167.818,205.130 167.196,204.370 166.436 C 203.610 165.676,202.715 165.054,202.382 165.054 C 202.049 165.054,201.777 164.877,201.777 164.659 C 201.777 164.442,201.155 164.265,200.395 164.265 C 199.635 164.265,199.013 164.087,199.013 163.870 C 199.013 163.653,198.302 163.475,197.433 163.475 L 195.854 163.475 195.854 158.539 C 195.854 155.512,195.701 153.603,195.459 153.603 C 195.230 153.603,195.062 152.316,195.058 150.543 C 195.054 148.421,194.935 147.664,194.669 148.075 C 194.395 148.499,194.285 148.078,194.280 146.594 C 194.277 145.454,194.097 144.521,193.880 144.521 C 193.662 144.521,193.485 144.077,193.485 143.534 C 193.485 142.991,193.307 142.547,193.090 142.547 C 192.873 142.547,192.695 142.014,192.695 141.362 C 192.695 140.711,192.517 140.178,192.300 140.178 C 192.083 140.178,191.905 139.822,191.905 139.388 C 191.905 138.954,191.729 138.598,191.513 138.598 C 191.297 138.598,191.182 138.198,191.258 137.710 C 191.333 137.221,191.154 136.452,190.859 136.000 C 190.564 135.548,190.426 135.076,190.552 134.950 C 190.677 134.825,190.399 134.601,189.932 134.453 C 189.405 134.285,189.167 133.967,189.303 133.612 C 189.424 133.297,189.259 132.939,188.937 132.815 C 188.615 132.692,188.351 132.294,188.351 131.930 C 188.351 131.567,187.996 131.014,187.562 130.701 C 187.127 130.388,186.772 129.887,186.772 129.588 C 186.772 129.047,185.261 127.487,183.650 126.364 C 183.188 126.042,182.892 125.562,182.994 125.298 C 183.095 125.034,182.962 124.901,182.698 125.002 C 182.434 125.104,181.954 124.807,181.632 124.342 C 180.525 122.746,178.146 120.434,177.611 120.434 C 177.316 120.434,176.818 120.079,176.505 119.645 C 176.192 119.210,175.639 118.855,175.276 118.855 C 174.913 118.855,174.530 118.631,174.424 118.357 C 174.169 117.691,170.917 116.091,169.820 116.091 C 168.413 116.091,167.818 115.155,167.818 112.942 C 167.818 111.068,166.669 108.983,165.636 108.983 C 164.789 108.983,164.265 107.636,164.265 105.458 C 164.265 103.323,164.351 103.060,165.054 103.060 C 165.489 103.060,165.844 102.883,165.844 102.665 C 165.844 102.448,166.030 102.270,166.257 102.270 C 166.891 102.270,168.608 100.409,168.608 99.722 C 168.608 99.386,168.786 99.112,169.003 99.112 C 169.220 99.112,169.398 98.134,169.398 96.940 C 169.398 95.745,169.220 94.768,169.003 94.768 C 168.786 94.768,168.608 94.493,168.608 94.158 C 168.608 93.368,166.849 91.609,166.059 91.609 C 165.724 91.609,165.449 91.408,165.449 91.163 C 165.449 90.873,164.964 90.795,164.067 90.940 L 162.685 91.165 162.685 83.489 C 162.685 78.351,162.547 75.814,162.267 75.814 C 162.037 75.814,161.951 75.648,162.077 75.445 C 162.409 74.908,160.416 73.050,159.508 73.050 C 159.084 73.050,158.736 72.873,158.736 72.655 C 158.736 72.438,157.759 72.261,156.565 72.261 C 155.094 72.261,154.391 72.420,154.387 72.754 C 154.383 73.083,154.253 73.050,153.998 72.655 C 153.788 72.330,153.613 72.263,153.609 72.507 M281.935 88.450 C 281.935 88.667,281.535 88.848,281.046 88.851 C 280.328 88.856,280.271 88.930,280.750 89.240 C 281.262 89.571,281.253 89.623,280.684 89.629 C 279.944 89.635,277.465 90.856,277.262 91.313 C 277.190 91.476,276.918 91.609,276.658 91.609 C 276.399 91.609,275.930 91.964,275.617 92.399 C 275.304 92.833,274.771 93.189,274.432 93.189 C 274.094 93.189,273.561 93.544,273.248 93.978 C 272.935 94.413,272.374 94.768,272.003 94.768 C 271.631 94.768,271.214 95.123,271.076 95.558 C 270.918 96.054,270.479 96.347,269.891 96.347 C 269.304 96.347,268.864 96.641,268.707 97.137 C 268.569 97.572,268.178 97.927,267.838 97.927 C 267.498 97.927,266.898 98.299,266.504 98.753 C 266.110 99.207,265.591 99.457,265.350 99.309 C 265.110 99.161,264.591 99.411,264.197 99.865 C 263.803 100.319,263.191 100.691,262.836 100.691 C 262.482 100.691,262.192 100.869,262.192 101.086 C 262.192 101.303,261.925 101.481,261.599 101.481 C 261.273 101.481,261.007 101.658,261.007 101.876 C 261.007 102.093,260.740 102.270,260.415 102.270 C 260.089 102.270,259.822 102.448,259.822 102.665 C 259.822 102.883,259.595 103.060,259.317 103.060 C 259.039 103.060,258.556 103.416,258.243 103.850 C 257.930 104.284,257.397 104.640,257.058 104.640 C 256.720 104.640,256.187 104.995,255.874 105.429 C 255.561 105.864,255.000 106.219,254.628 106.219 C 254.257 106.219,253.835 106.591,253.690 107.045 C 253.515 107.599,253.192 107.809,252.708 107.683 C 252.270 107.568,251.667 107.864,251.167 108.439 C 250.343 109.387,250.045 110.958,250.689 110.958 C 250.878 110.958,251.154 112.024,251.301 113.327 C 251.449 114.630,251.738 115.696,251.945 115.696 C 252.151 115.696,252.320 116.229,252.320 116.881 C 252.320 117.532,252.498 118.065,252.715 118.065 C 252.932 118.065,253.110 118.598,253.110 119.250 C 253.110 119.901,253.287 120.434,253.504 120.434 C 253.722 120.434,253.899 120.957,253.899 121.596 C 253.899 122.234,254.077 122.867,254.294 123.001 C 254.511 123.135,254.689 123.768,254.689 124.406 C 254.689 125.045,254.867 125.568,255.084 125.568 C 255.301 125.568,255.479 126.367,255.479 127.345 C 255.479 128.322,255.656 129.121,255.874 129.121 C 256.091 129.121,256.269 130.099,256.269 131.293 C 256.269 132.488,256.446 133.465,256.663 133.465 C 256.889 133.465,257.058 134.650,257.058 136.229 C 257.058 137.808,257.227 138.993,257.453 138.993 C 257.707 138.993,257.848 142.942,257.848 150.049 C 257.848 157.157,257.707 161.106,257.453 161.106 C 257.227 161.106,257.058 162.290,257.058 163.870 C 257.058 165.449,256.889 166.634,256.663 166.634 C 256.444 166.634,256.269 167.687,256.269 169.003 C 256.269 170.319,256.093 171.372,255.874 171.372 C 255.656 171.372,255.479 171.994,255.479 172.754 C 255.479 173.514,255.301 174.136,255.084 174.136 C 254.867 174.136,254.689 174.748,254.689 175.495 C 254.689 176.242,254.511 176.964,254.294 177.098 C 254.077 177.232,253.899 178.042,253.899 178.898 C 253.899 179.754,253.722 180.454,253.504 180.454 C 253.287 180.454,253.110 180.898,253.110 181.441 C 253.110 181.984,252.932 182.428,252.715 182.428 C 252.498 182.428,252.320 182.962,252.320 183.613 C 252.320 184.265,252.155 184.798,251.953 184.798 C 251.752 184.798,251.465 185.775,251.316 186.969 C 251.166 188.164,250.887 189.141,250.695 189.141 C 250.503 189.141,250.346 189.497,250.346 189.931 C 250.346 190.365,250.168 190.721,249.951 190.721 C 249.733 190.721,249.556 191.254,249.556 191.905 C 249.556 192.557,249.378 193.090,249.161 193.090 C 248.944 193.090,248.766 193.445,248.766 193.880 C 248.766 194.314,248.588 194.669,248.371 194.669 C 248.154 194.669,247.976 194.936,247.976 195.262 C 247.976 195.587,247.799 195.854,247.581 195.854 C 247.364 195.854,247.187 196.209,247.187 196.644 C 247.187 197.078,247.009 197.433,246.792 197.433 C 246.575 197.433,246.397 197.789,246.397 198.223 C 246.397 198.657,246.219 199.013,246.002 199.013 C 245.785 199.013,245.607 199.329,245.607 199.715 C 245.607 200.102,245.252 200.674,244.817 200.987 C 244.383 201.300,244.028 201.784,244.028 202.062 C 244.028 202.339,243.850 202.567,243.633 202.567 C 243.416 202.567,243.238 202.912,243.238 203.333 C 243.238 203.755,243.057 204.211,242.837 204.348 C 242.616 204.484,242.543 204.770,242.675 204.984 C 242.807 205.198,242.544 205.695,242.090 206.089 C 241.635 206.483,241.264 207.056,241.264 207.363 C 241.264 207.670,240.908 208.177,240.474 208.490 C 240.039 208.803,239.684 209.332,239.684 209.666 C 239.684 210.001,239.329 210.496,238.894 210.767 C 238.460 211.038,238.105 211.614,238.105 212.047 C 238.105 212.479,237.934 212.833,237.725 212.833 C 237.062 212.833,235.785 214.477,236.004 215.048 C 236.122 215.354,235.973 215.597,235.667 215.597 C 235.366 215.597,234.859 215.977,234.539 216.441 C 234.220 216.906,233.559 217.697,233.070 218.200 C 232.581 218.704,232.182 219.390,232.182 219.725 C 232.182 220.061,232.007 220.336,231.793 220.336 C 231.579 220.336,230.088 221.687,228.478 223.338 C 224.771 227.141,225.017 226.895,223.353 228.473 C 222.577 229.210,221.776 229.812,221.573 229.812 C 221.072 229.812,217.177 233.659,217.177 234.154 C 217.177 234.372,216.861 234.551,216.474 234.551 C 216.088 234.551,215.515 234.906,215.202 235.341 C 214.889 235.775,214.316 236.130,213.928 236.130 C 213.540 236.130,212.837 236.575,212.364 237.117 C 211.892 237.660,211.264 238.105,210.968 238.105 C 210.438 238.105,209.953 238.429,208.461 239.783 C 208.043 240.163,207.473 240.474,207.195 240.474 C 206.917 240.474,206.433 240.829,206.120 241.264 C 205.807 241.698,205.235 242.053,204.849 242.053 C 204.462 242.053,204.146 242.231,204.146 242.448 C 204.146 242.665,203.791 242.843,203.356 242.843 C 202.922 242.843,202.567 243.021,202.567 243.238 C 202.567 243.455,202.211 243.633,201.777 243.633 C 201.343 243.633,200.987 243.802,200.987 244.010 C 200.987 244.217,200.365 244.503,199.605 244.646 C 198.845 244.789,198.223 245.063,198.223 245.256 C 198.223 245.449,197.868 245.607,197.433 245.607 C 196.999 245.607,196.644 245.785,196.644 246.002 C 196.644 246.219,196.288 246.397,195.854 246.397 C 195.420 246.397,195.064 246.575,195.064 246.792 C 195.064 247.009,194.709 247.187,194.274 247.187 C 193.840 247.187,193.485 247.364,193.485 247.581 C 193.485 247.799,193.040 247.976,192.498 247.976 C 191.955 247.976,191.510 248.154,191.510 248.371 C 191.510 248.588,191.155 248.766,190.721 248.766 C 190.286 248.766,189.931 248.944,189.931 249.161 C 189.931 249.378,189.398 249.556,188.746 249.556 C 188.095 249.556,187.562 249.733,187.562 249.951 C 187.562 250.168,187.029 250.346,186.377 250.346 C 185.726 250.346,185.192 250.523,185.192 250.740 C 185.192 250.958,184.759 251.135,184.229 251.135 C 183.699 251.135,183.155 251.313,183.021 251.530 C 182.887 251.747,182.343 251.925,181.813 251.925 C 181.283 251.925,180.849 252.103,180.849 252.320 C 180.849 252.537,180.227 252.715,179.467 252.715 C 178.707 252.715,178.085 252.907,178.085 253.141 C 178.085 253.404,177.655 253.473,176.963 253.321 C 176.248 253.164,175.684 253.264,175.408 253.597 C 175.125 253.938,174.207 254.091,172.771 254.036 C 171.487 253.987,170.663 254.106,170.796 254.321 C 170.929 254.535,169.861 254.689,168.237 254.689 C 166.364 254.689,165.482 254.836,165.548 255.137 C 165.618 255.455,164.248 255.561,160.809 255.503 C 157.578 255.448,155.972 255.562,155.972 255.845 C 155.972 256.111,154.799 256.269,152.813 256.269 C 150.870 256.269,149.654 256.109,149.654 255.854 C 149.654 255.584,147.960 255.453,144.817 255.480 C 138.640 255.533,138.901 255.553,139.214 255.046 C 139.400 254.745,138.717 254.657,136.966 254.754 C 135.281 254.847,134.322 254.730,134.057 254.399 C 133.840 254.128,132.818 253.876,131.787 253.839 C 130.755 253.802,129.911 253.600,129.911 253.390 C 129.911 253.166,129.258 253.113,128.332 253.261 C 127.363 253.416,126.752 253.359,126.752 253.114 C 126.752 252.894,126.130 252.715,125.370 252.715 C 124.610 252.715,123.988 252.537,123.988 252.320 C 123.988 252.103,123.455 251.925,122.804 251.925 C 122.152 251.925,121.619 251.747,121.619 251.530 C 121.619 251.313,121.175 251.135,120.632 251.135 C 120.089 251.135,119.645 250.958,119.645 250.740 C 119.645 250.523,119.112 250.346,118.460 250.346 C 117.808 250.346,117.275 250.168,117.275 249.951 C 117.275 249.733,116.742 249.556,116.091 249.556 C 115.439 249.556,114.906 249.378,114.906 249.161 C 114.906 248.944,114.640 248.766,114.314 248.766 C 113.988 248.766,113.722 248.588,113.722 248.371 C 113.722 248.154,113.189 247.976,112.537 247.976 C 111.885 247.976,111.352 247.799,111.352 247.581 C 111.352 247.364,110.997 247.187,110.563 247.187 C 110.128 247.187,109.773 247.009,109.773 246.792 C 109.773 246.575,109.418 246.397,108.983 246.397 C 108.549 246.397,108.193 246.219,108.193 246.002 C 108.193 245.785,107.838 245.607,107.404 245.607 C 106.969 245.607,106.614 245.437,106.614 245.230 C 106.614 245.023,105.992 244.736,105.232 244.594 C 104.472 244.451,103.850 244.177,103.850 243.984 C 103.850 243.791,103.495 243.633,103.060 243.633 C 102.626 243.633,102.270 243.455,102.270 243.238 C 102.270 243.021,101.954 242.843,101.568 242.843 C 101.182 242.843,100.609 242.488,100.296 242.053 C 99.983 241.619,99.411 241.264,99.024 241.264 C 98.638 241.264,98.322 241.086,98.322 240.869 C 98.322 240.652,97.978 240.474,97.559 240.474 C 97.139 240.474,96.683 240.118,96.545 239.684 C 96.407 239.250,95.990 238.894,95.618 238.894 C 95.247 238.894,94.686 238.539,94.373 238.105 C 94.060 237.670,93.488 237.315,93.101 237.315 C 92.715 237.315,92.399 237.141,92.399 236.928 C 92.399 236.715,91.910 236.420,91.313 236.272 C 90.255 236.011,88.845 234.767,88.845 234.096 C 88.845 233.912,88.401 233.761,87.858 233.761 C 87.315 233.761,86.871 233.602,86.871 233.408 C 86.871 232.770,84.594 230.602,83.925 230.602 C 83.565 230.602,83.379 230.427,83.512 230.212 C 83.650 229.988,83.491 229.922,83.140 230.057 C 82.803 230.186,82.527 230.085,82.527 229.833 C 82.527 229.581,80.318 227.181,77.617 224.500 C 74.917 221.819,72.789 219.544,72.888 219.445 C 72.987 219.346,72.353 218.528,71.480 217.628 C 70.606 216.728,69.891 215.803,69.891 215.573 C 69.891 215.344,69.714 215.266,69.497 215.400 C 69.279 215.534,69.102 215.349,69.102 214.989 C 69.102 214.629,68.560 213.828,67.898 213.210 C 67.235 212.591,66.702 211.987,66.713 211.867 C 66.782 211.095,66.647 210.885,65.943 210.661 C 65.508 210.524,65.153 210.067,65.153 209.648 C 65.153 209.228,64.996 208.885,64.803 208.885 C 64.611 208.885,64.153 208.252,63.786 207.479 C 62.946 205.708,62.171 205.400,61.245 206.469 C 60.846 206.929,60.229 207.305,59.875 207.305 C 59.520 207.305,59.230 207.483,59.230 207.700 C 59.230 207.917,58.914 208.095,58.527 208.095 C 58.141 208.095,57.569 208.450,57.256 208.885 C 56.943 209.319,56.481 209.674,56.230 209.674 C 55.978 209.674,55.552 209.941,55.281 210.267 C 55.011 210.592,54.532 210.859,54.218 210.859 C 53.555 210.859,52.517 211.798,52.517 212.398 C 52.517 212.624,52.245 212.704,51.913 212.577 C 51.564 212.443,51.002 212.698,50.584 213.181 C 50.184 213.641,49.580 214.018,49.240 214.018 C 48.900 214.018,48.509 214.373,48.371 214.808 C 48.095 215.677,47.391 215.886,47.372 215.104 C 47.365 214.832,47.155 214.965,46.904 215.400 C 46.262 216.512,45.546 217.177,44.991 217.177 C 44.729 217.177,44.228 217.508,43.876 217.913 C 43.525 218.319,42.684 218.772,42.008 218.920 C 41.331 219.069,40.406 219.537,39.951 219.960 C 39.497 220.384,38.979 220.731,38.801 220.731 C 38.622 220.731,38.220 221.086,37.907 221.520 C 37.594 221.955,37.061 222.310,36.723 222.310 C 36.384 222.310,35.851 222.665,35.538 223.100 C 35.225 223.534,34.692 223.889,34.353 223.889 C 34.015 223.889,33.482 224.245,33.169 224.679 C 32.856 225.114,32.360 225.469,32.066 225.469 C 31.163 225.469,30.405 226.537,30.405 227.810 C 30.405 228.477,30.582 229.023,30.800 229.023 C 31.017 229.023,31.194 229.339,31.194 229.725 C 31.194 230.112,31.550 230.684,31.984 230.997 C 32.419 231.310,32.774 231.843,32.774 232.182 C 32.774 232.520,33.129 233.053,33.564 233.366 C 33.998 233.679,34.353 234.262,34.353 234.661 C 34.353 235.061,34.531 235.277,34.748 235.143 C 34.965 235.009,35.143 235.164,35.143 235.488 C 35.143 235.812,35.499 236.190,35.933 236.328 C 36.367 236.466,36.723 236.841,36.723 237.162 C 36.723 237.483,37.167 238.190,37.710 238.733 C 38.253 239.276,38.697 239.890,38.697 240.097 C 38.697 240.304,38.982 240.474,39.331 240.474 C 39.721 240.474,39.882 240.693,39.748 241.041 C 39.535 241.596,41.243 243.528,43.784 245.607 C 44.448 246.150,44.997 246.823,45.003 247.102 C 45.016 247.648,45.823 248.611,48.473 251.243 C 53.323 256.060,55.325 257.848,55.866 257.848 C 56.196 257.848,56.466 258.021,56.466 258.232 C 56.466 258.861,59.989 262.192,60.653 262.192 C 60.990 262.192,61.949 262.902,62.784 263.771 C 63.618 264.640,64.422 265.350,64.569 265.350 C 64.716 265.350,65.352 265.902,65.982 266.577 C 66.612 267.251,67.127 267.588,67.127 267.325 C 67.127 267.062,67.643 267.398,68.273 268.073 C 68.903 268.747,69.703 269.299,70.050 269.299 C 70.397 269.299,70.681 269.465,70.681 269.667 C 70.681 269.870,71.081 270.162,71.570 270.316 C 72.058 270.470,72.745 270.927,73.097 271.330 C 73.448 271.733,74.025 272.063,74.380 272.063 C 74.735 272.063,75.025 272.241,75.025 272.458 C 75.025 272.675,75.341 272.853,75.727 272.853 C 76.114 272.853,76.686 273.208,76.999 273.643 C 77.312 274.077,77.884 274.432,78.271 274.432 C 78.657 274.432,78.973 274.610,78.973 274.827 C 78.973 275.044,79.263 275.222,79.618 275.222 C 79.973 275.222,80.550 275.547,80.901 275.943 C 81.253 276.339,82.117 276.916,82.823 277.224 C 83.529 277.532,84.107 277.903,84.107 278.048 C 84.107 278.193,84.817 278.432,85.686 278.578 C 86.555 278.725,87.266 279.007,87.266 279.205 C 87.266 279.404,87.621 279.566,88.055 279.566 C 88.490 279.566,88.845 279.743,88.845 279.961 C 88.845 280.178,89.112 280.355,89.437 280.355 C 89.763 280.355,90.030 280.533,90.030 280.750 C 90.030 280.967,90.375 281.145,90.796 281.145 C 91.218 281.145,91.672 281.323,91.807 281.540 C 91.941 281.757,92.573 281.935,93.212 281.935 C 93.851 281.935,94.373 282.113,94.373 282.330 C 94.373 282.547,94.640 282.725,94.965 282.725 C 95.291 282.725,95.558 282.902,95.558 283.119 C 95.558 283.337,96.091 283.514,96.742 283.514 C 97.394 283.514,97.928 283.648,97.930 283.810 C 97.935 284.252,99.927 285.094,100.967 285.094 C 101.467 285.094,101.876 285.271,101.876 285.489 C 101.876 285.706,102.142 285.884,102.468 285.884 C 102.794 285.884,103.060 286.022,103.060 286.192 C 103.060 286.362,103.539 286.541,104.124 286.589 C 104.709 286.637,105.289 286.840,105.412 287.040 C 105.535 287.239,106.745 287.528,108.099 287.681 C 109.454 287.834,110.563 288.115,110.563 288.304 C 110.563 288.493,111.096 288.648,111.747 288.648 C 112.399 288.648,112.932 288.825,112.932 289.042 C 112.932 289.260,113.643 289.437,114.511 289.437 C 115.380 289.437,116.091 289.615,116.091 289.832 C 116.091 290.049,116.713 290.227,117.473 290.227 C 118.233 290.227,118.855 290.405,118.855 290.622 C 118.855 290.839,119.654 291.017,120.632 291.017 C 121.609 291.017,122.409 291.194,122.409 291.412 C 122.409 291.629,123.119 291.807,123.988 291.807 C 124.857 291.807,125.568 291.984,125.568 292.201 C 125.568 292.427,126.752 292.596,128.332 292.596 C 129.911 292.596,131.096 292.765,131.096 292.991 C 131.096 293.220,132.354 293.386,134.081 293.386 C 136.163 293.386,136.984 293.518,136.795 293.823 C 136.602 294.136,137.918 294.234,141.411 294.168 C 147.427 294.054,147.787 294.078,147.483 294.571 C 147.324 294.827,149.353 294.963,153.284 294.959 C 157.333 294.955,159.133 294.827,158.736 294.571 C 157.983 294.084,158.710 294.030,164.217 294.165 C 167.150 294.237,168.238 294.141,168.044 293.826 C 167.853 293.517,168.663 293.386,170.757 293.386 C 172.483 293.386,173.741 293.220,173.741 292.991 C 173.741 292.769,174.852 292.596,176.285 292.596 C 177.684 292.596,178.938 292.419,179.072 292.201 C 179.206 291.984,180.016 291.807,180.872 291.807 C 181.728 291.807,182.428 291.629,182.428 291.412 C 182.428 291.194,183.228 291.017,184.205 291.017 C 185.183 291.017,185.982 290.839,185.982 290.622 C 185.982 290.405,186.871 290.227,187.957 290.227 C 189.042 290.227,189.931 290.049,189.931 289.832 C 189.931 289.615,190.375 289.437,190.918 289.437 C 191.461 289.437,191.905 289.260,191.905 289.042 C 191.905 288.825,192.438 288.648,193.090 288.648 C 193.741 288.648,194.274 288.495,194.274 288.308 C 194.274 288.121,195.277 287.865,196.502 287.738 C 197.728 287.612,198.918 287.321,199.148 287.091 C 199.378 286.861,200.063 286.673,200.671 286.673 C 201.279 286.673,201.777 286.496,201.777 286.278 C 201.777 286.061,202.132 285.884,202.567 285.884 C 203.001 285.884,203.356 285.706,203.356 285.489 C 203.356 285.271,203.889 285.094,204.541 285.094 C 205.192 285.094,205.726 284.916,205.726 284.699 C 205.726 284.482,206.259 284.304,206.910 284.304 C 207.562 284.304,208.095 284.126,208.095 283.909 C 208.095 283.692,208.361 283.514,208.687 283.514 C 209.013 283.514,209.279 283.337,209.279 283.119 C 209.279 282.902,209.635 282.725,210.069 282.725 C 210.503 282.725,210.859 282.547,210.859 282.330 C 210.859 282.113,211.125 281.935,211.451 281.935 C 211.777 281.935,212.043 281.757,212.043 281.540 C 212.043 281.323,212.488 281.145,213.031 281.145 C 213.574 281.145,214.018 280.967,214.018 280.750 C 214.018 280.533,214.460 280.355,215.002 280.355 C 215.558 280.355,216.200 280.012,216.479 279.566 C 216.750 279.131,217.284 278.776,217.667 278.776 C 218.049 278.776,218.361 278.615,218.361 278.418 C 218.361 278.221,218.717 278.153,219.151 278.267 C 219.685 278.406,219.941 278.279,219.941 277.872 C 219.941 277.465,220.196 277.337,220.731 277.477 C 221.172 277.592,221.520 277.489,221.520 277.243 C 221.520 277.000,221.876 276.802,222.310 276.802 C 222.744 276.802,223.100 276.667,223.100 276.503 C 223.100 276.339,223.677 275.953,224.383 275.645 C 225.089 275.336,225.954 274.760,226.305 274.364 C 226.656 273.967,227.234 273.643,227.588 273.643 C 227.943 273.643,228.233 273.465,228.233 273.248 C 228.233 273.031,228.549 272.853,228.936 272.853 C 229.322 272.853,229.894 272.498,230.207 272.063 C 230.520 271.629,231.093 271.273,231.479 271.273 C 231.865 271.273,232.182 271.108,232.182 270.905 C 232.182 270.703,232.573 270.413,233.052 270.261 C 234.044 269.946,234.946 269.143,234.946 268.575 C 234.946 268.362,235.301 268.281,235.735 268.395 C 236.177 268.510,236.525 268.407,236.525 268.161 C 236.525 267.569,237.602 267.600,238.327 268.213 C 240.420 269.982,241.264 270.858,241.264 271.263 C 241.264 271.841,242.250 272.853,242.815 272.853 C 243.048 272.853,243.245 273.164,243.254 273.544 C 243.262 273.924,244.346 275.212,245.662 276.407 C 248.627 279.099,251.028 281.506,252.320 283.081 C 252.863 283.743,253.618 284.390,253.998 284.519 C 254.403 284.655,254.689 285.150,254.689 285.713 C 254.689 286.241,254.867 286.673,255.084 286.673 C 255.301 286.673,255.479 287.217,255.479 287.881 C 255.479 288.586,255.643 288.987,255.874 288.845 C 256.112 288.698,256.269 289.236,256.269 290.204 C 256.269 291.085,256.446 291.807,256.663 291.807 C 256.881 291.807,257.058 292.517,257.058 293.386 C 257.058 294.255,257.236 294.965,257.453 294.965 C 257.670 294.965,257.848 295.232,257.848 295.558 C 257.848 295.884,258.026 296.150,258.243 296.150 C 258.460 296.150,258.638 296.505,258.638 296.940 C 258.638 297.374,258.815 297.730,259.033 297.730 C 259.250 297.730,259.427 298.085,259.427 298.519 C 259.427 298.954,259.617 299.309,259.849 299.309 C 260.091 299.309,260.164 299.646,260.020 300.099 C 259.876 300.552,259.949 300.888,260.191 300.888 C 260.422 300.888,260.612 301.121,260.612 301.406 C 260.612 301.691,260.967 302.306,261.402 302.772 C 261.836 303.238,262.192 303.711,262.192 303.824 C 262.192 304.011,267.380 309.486,269.976 312.039 C 270.581 312.634,272.409 314.453,274.038 316.082 C 275.666 317.711,277.555 319.600,278.235 320.280 C 278.915 320.960,280.804 322.849,282.432 324.478 C 290.524 332.575,293.525 335.575,295.323 337.363 C 296.224 338.260,298.281 340.326,299.895 341.955 C 301.509 343.583,303.326 345.403,303.932 345.998 C 304.538 346.592,306.390 348.435,308.047 350.093 C 311.737 353.786,313.469 355.518,316.784 358.833 C 318.196 360.245,320.061 362.110,320.930 362.979 C 321.799 363.848,323.642 365.691,325.026 367.074 C 326.410 368.458,328.285 370.346,329.194 371.271 C 330.102 372.195,331.968 374.032,333.340 375.353 C 334.712 376.674,336.500 378.502,337.315 379.414 C 338.129 380.327,338.796 380.895,338.796 380.677 C 338.796 380.460,339.062 380.384,339.388 380.509 C 339.714 380.634,339.980 380.972,339.980 381.259 C 339.980 381.547,340.336 381.896,340.770 382.034 C 341.204 382.171,341.560 382.450,341.560 382.652 C 341.560 382.855,341.876 383.021,342.262 383.021 C 342.649 383.021,343.221 383.376,343.534 383.810 C 343.847 384.245,344.331 384.600,344.608 384.600 C 344.886 384.600,345.114 384.778,345.114 384.995 C 345.114 385.212,345.469 385.390,345.903 385.390 C 346.338 385.390,346.693 385.568,346.693 385.785 C 346.693 386.002,347.034 386.180,347.450 386.180 C 347.866 386.180,348.266 386.356,348.338 386.571 C 348.411 386.786,348.959 387.003,349.556 387.052 C 350.153 387.101,350.642 387.281,350.642 387.450 C 350.642 387.620,351.175 387.759,351.826 387.759 C 352.478 387.759,353.011 387.960,353.011 388.206 C 353.011 388.501,353.558 388.579,354.616 388.438 C 355.786 388.281,356.279 388.374,356.435 388.780 C 356.695 389.458,366.831 389.618,366.831 388.944 C 366.831 388.727,367.720 388.549,368.806 388.549 C 369.891 388.549,370.780 388.371,370.780 388.154 C 370.780 387.937,371.313 387.759,371.964 387.759 C 372.616 387.759,373.149 387.581,373.149 387.364 C 373.149 387.147,373.504 386.969,373.939 386.969 C 374.373 386.969,374.729 386.792,374.729 386.575 C 374.729 386.357,374.995 386.180,375.321 386.180 C 375.647 386.180,375.913 386.002,375.913 385.785 C 375.913 385.568,376.357 385.390,376.900 385.390 C 377.443 385.390,377.887 385.212,377.887 384.995 C 377.887 384.778,378.115 384.600,378.393 384.600 C 378.670 384.600,379.154 384.245,379.467 383.810 C 379.780 383.376,380.271 383.021,380.558 383.021 C 380.845 383.021,381.294 382.840,381.557 382.619 C 383.164 381.263,383.658 380.757,384.034 380.080 C 384.266 379.663,384.797 379.133,385.213 378.901 C 385.890 378.525,386.396 378.031,387.752 376.423 C 387.973 376.161,388.154 375.672,388.154 375.337 C 388.154 375.003,388.332 374.729,388.549 374.729 C 388.766 374.729,388.944 374.385,388.944 373.965 C 388.944 373.546,389.299 373.089,389.733 372.952 C 390.168 372.814,390.523 372.358,390.523 371.938 C 390.523 371.518,390.701 371.175,390.918 371.175 C 391.135 371.175,391.313 370.553,391.313 369.793 C 391.313 369.033,391.491 368.411,391.708 368.411 C 391.925 368.411,392.103 367.966,392.103 367.423 C 392.103 366.881,392.280 366.436,392.498 366.436 C 392.715 366.436,392.892 365.548,392.892 364.462 C 392.892 363.376,393.070 362.488,393.287 362.488 C 393.529 362.488,393.682 360.637,393.682 357.726 C 393.682 354.652,393.542 353.051,393.287 353.208 C 393.044 353.358,392.892 352.697,392.892 351.488 C 392.892 350.286,392.701 349.445,392.399 349.323 C 392.027 349.172,392.052 349.019,392.498 348.703 C 392.899 348.419,392.931 348.283,392.596 348.279 C 392.325 348.275,392.103 348.006,392.103 347.680 C 392.103 347.354,391.925 347.088,391.708 347.088 C 391.491 347.088,391.313 346.555,391.313 345.903 C 391.313 345.252,391.135 344.719,390.918 344.719 C 390.701 344.719,390.523 344.363,390.523 343.929 C 390.523 343.495,390.346 343.139,390.128 343.139 C 389.911 343.139,389.733 342.784,389.733 342.349 C 389.733 341.915,389.556 341.560,389.339 341.560 C 389.121 341.560,388.944 341.244,388.944 340.857 C 388.944 340.471,388.588 339.898,388.154 339.585 C 387.720 339.272,387.364 338.791,387.364 338.516 C 387.364 338.241,385.658 336.344,383.572 334.301 C 381.487 332.257,379.603 330.407,379.386 330.190 C 378.871 329.675,370.818 321.623,370.304 321.108 C 370.086 320.891,368.221 319.025,366.157 316.962 C 364.094 314.899,362.228 313.033,362.011 312.816 C 361.794 312.599,359.928 310.733,357.865 308.670 C 355.802 306.607,353.962 304.767,353.777 304.582 C 353.338 304.142,336.861 287.665,336.345 287.150 C 336.128 286.932,334.262 285.067,332.199 283.004 C 330.136 280.940,328.295 279.101,328.109 278.915 C 327.922 278.730,324.122 274.891,319.664 270.385 C 315.206 265.879,311.387 262.192,311.177 262.192 C 310.968 262.192,310.352 261.747,309.809 261.204 C 309.266 260.661,308.586 260.217,308.299 260.217 C 308.011 260.217,307.519 259.862,307.206 259.427 C 306.893 258.993,306.321 258.638,305.935 258.638 C 305.548 258.638,305.232 258.460,305.232 258.243 C 305.232 258.026,304.877 257.848,304.442 257.848 C 304.008 257.848,303.653 257.670,303.653 257.453 C 303.653 257.236,303.297 257.058,302.863 257.058 C 302.428 257.058,302.073 256.881,302.073 256.663 C 302.073 256.446,301.529 256.269,300.865 256.269 C 300.160 256.269,299.759 256.104,299.901 255.874 C 300.040 255.650,299.708 255.479,299.135 255.479 C 298.579 255.479,298.124 255.301,298.124 255.084 C 298.124 254.867,297.502 254.689,296.742 254.689 C 295.977 254.689,295.360 254.490,295.360 254.242 C 295.360 253.949,294.818 253.868,293.781 254.007 C 292.646 254.159,292.201 254.076,292.201 253.710 C 292.201 253.378,291.344 253.108,289.733 252.932 C 287.646 252.704,287.113 252.480,286.278 251.481 C 283.916 248.654,280.892 245.757,280.455 245.903 C 280.194 245.990,278.734 244.760,277.210 243.169 C 271.867 237.592,271.386 237.113,270.543 236.537 C 269.397 235.753,269.358 233.526,270.484 233.169 C 270.918 233.031,271.273 232.614,271.273 232.242 C 271.273 231.870,271.629 231.310,272.063 230.997 C 272.498 230.684,272.853 230.151,272.853 229.812 C 272.853 229.474,273.208 228.941,273.643 228.628 C 274.077 228.315,274.432 227.913,274.432 227.734 C 274.432 227.556,274.779 227.038,275.202 226.584 C 275.626 226.129,276.094 225.204,276.243 224.527 C 276.391 223.851,276.844 223.010,277.249 222.659 C 277.655 222.307,277.986 221.730,277.986 221.375 C 277.986 221.021,278.164 220.731,278.381 220.731 C 278.598 220.731,278.776 220.375,278.776 219.941 C 278.776 219.506,278.954 219.151,279.171 219.151 C 279.388 219.151,279.566 218.796,279.566 218.361 C 279.566 217.927,279.743 217.572,279.961 217.572 C 280.178 217.572,280.355 217.305,280.355 216.979 C 280.355 216.654,280.533 216.387,280.750 216.387 C 280.967 216.387,281.145 216.032,281.145 215.597 C 281.145 215.163,281.323 214.808,281.540 214.808 C 281.757 214.808,281.935 214.530,281.935 214.192 C 281.935 213.853,282.113 213.686,282.330 213.820 C 282.562 213.964,282.727 213.527,282.731 212.758 C 282.735 211.729,282.825 211.577,283.153 212.043 C 283.473 212.498,283.534 212.337,283.413 211.352 C 283.320 210.593,283.432 210.069,283.687 210.069 C 284.243 210.069,285.489 207.200,285.489 205.920 C 285.489 205.379,285.666 204.936,285.884 204.936 C 286.101 204.936,286.278 204.580,286.278 204.146 C 286.278 203.712,286.456 203.356,286.673 203.356 C 286.890 203.356,287.068 203.001,287.068 202.567 C 287.068 202.132,287.246 201.777,287.463 201.777 C 287.680 201.777,287.858 201.333,287.858 200.790 C 287.858 200.247,288.036 199.803,288.253 199.803 C 288.470 199.803,288.648 199.181,288.648 198.421 C 288.648 197.660,288.825 197.038,289.042 197.038 C 289.260 197.038,289.437 196.594,289.437 196.051 C 289.437 195.508,289.615 195.064,289.832 195.064 C 290.049 195.064,290.227 194.531,290.227 193.880 C 290.227 193.228,290.405 192.695,290.622 192.695 C 290.839 192.695,291.017 192.251,291.017 191.708 C 291.017 191.165,291.194 190.721,291.412 190.721 C 291.629 190.721,291.807 190.010,291.807 189.141 C 291.807 188.272,291.965 187.562,292.158 187.562 C 292.352 187.562,292.602 186.984,292.714 186.278 C 292.826 185.573,293.108 184.284,293.340 183.416 C 293.572 182.547,293.766 180.992,293.771 179.961 C 293.777 178.929,293.959 178.085,294.176 178.085 C 294.393 178.085,294.571 177.108,294.571 175.913 C 294.571 174.719,294.748 173.741,294.965 173.741 C 295.185 173.741,295.360 172.681,295.360 171.349 C 295.360 169.854,295.509 169.048,295.755 169.200 C 296.008 169.357,296.150 168.020,296.150 165.472 C 296.150 163.088,296.308 161.500,296.545 161.500 C 296.800 161.500,296.940 157.157,296.940 149.260 C 296.940 141.362,296.800 137.019,296.545 137.019 C 296.309 137.019,296.150 135.505,296.150 133.268 C 296.150 131.030,295.991 129.516,295.755 129.516 C 295.532 129.516,295.360 128.397,295.360 126.950 C 295.360 125.502,295.188 124.383,294.965 124.383 C 294.748 124.383,294.571 123.406,294.571 122.211 C 294.571 121.017,294.393 120.039,294.176 120.039 C 293.959 120.039,293.779 119.462,293.777 118.756 C 293.770 115.871,293.275 113.327,292.721 113.327 C 292.300 113.327,292.228 112.992,292.425 111.945 C 292.595 111.039,292.533 110.563,292.245 110.563 C 292.004 110.563,291.807 109.941,291.807 109.181 C 291.807 108.296,291.618 107.799,291.283 107.799 C 290.925 107.799,290.814 107.422,290.933 106.614 C 291.037 105.903,290.931 105.429,290.667 105.429 C 290.417 105.429,290.227 104.747,290.227 103.850 C 290.227 102.981,290.049 102.270,289.832 102.270 C 289.615 102.270,289.437 101.737,289.437 101.086 C 289.437 100.434,289.260 99.901,289.042 99.901 C 288.825 99.901,288.648 99.635,288.648 99.309 C 288.648 98.983,288.470 98.717,288.253 98.717 C 288.036 98.717,287.858 98.184,287.858 97.532 C 287.858 96.881,287.680 96.347,287.463 96.347 C 287.246 96.347,287.068 95.992,287.068 95.558 C 287.068 95.123,286.890 94.768,286.673 94.768 C 286.456 94.768,286.278 94.235,286.278 93.583 C 286.278 92.932,286.120 92.399,285.927 92.399 C 285.734 92.399,285.460 91.777,285.317 91.017 C 285.175 90.257,284.888 89.635,284.681 89.635 C 284.474 89.635,284.304 89.279,284.304 88.845 C 284.304 88.231,284.041 88.055,283.119 88.055 C 282.468 88.055,281.935 88.233,281.935 88.450 M158.755 143.356 C 159.373 144.018,159.978 144.551,160.098 144.541 C 160.218 144.530,160.316 144.610,160.316 144.719 C 160.316 144.827,160.316 149.092,160.316 154.195 L 160.316 163.475 155.775 163.475 L 151.234 163.475 151.234 154.184 L 151.234 144.894 152.517 143.550 C 154.333 141.649,157.080 141.564,158.755 143.356 M139.390 149.556 L 140.533 150.642 140.651 157.059 L 140.770 163.476 136.328 163.475 L 131.885 163.475 131.885 157.102 L 131.885 150.728 132.971 149.630 C 134.553 148.030,137.744 147.993,139.390 149.556 M177.384 148.963 C 178.594 149.652,179.269 150.314,179.269 150.811 C 179.269 151.044,179.447 151.234,179.664 151.234 C 179.911 151.234,180.059 153.537,180.059 157.354 L 180.059 163.475 175.518 163.475 L 170.977 163.475 170.977 156.613 C 170.977 149.453,171.192 148.517,172.704 149.098 C 173.059 149.234,173.346 149.148,173.346 148.907 C 173.346 148.309,176.306 148.351,177.384 148.963 M132.280 178.875 C 131.860 179.146,132.347 179.259,133.959 179.263 L 136.229 179.269 136.229 197.828 L 136.229 216.387 131.293 216.387 L 126.357 216.387 126.357 197.828 L 126.357 179.269 128.825 179.263 C 130.564 179.259,131.118 179.144,130.701 178.875 C 130.257 178.588,130.454 178.492,131.491 178.492 C 132.527 178.492,132.725 178.588,132.280 178.875 M160.316 197.828 L 160.316 216.387 155.775 216.387 L 151.234 216.387 151.234 197.828 L 151.234 179.269 155.775 179.269 L 160.316 179.269 160.316 197.828 M185.192 197.828 L 185.192 216.387 180.652 216.387 L 176.111 216.387 176.111 197.828 L 176.111 179.269 180.652 179.269 L 185.192 179.269 185.192 197.828 M111.352 199.803 L 111.352 209.674 105.801 209.674 C 102.201 209.674,100.335 209.535,100.494 209.279 C 100.628 209.062,100.549 208.885,100.319 208.885 C 100.037 208.885,99.901 205.814,99.901 199.408 L 99.901 189.931 105.627 189.931 L 111.352 189.931 111.352 199.803 M212.425 199.803 L 212.388 209.674 206.688 209.674 L 200.987 209.674 200.987 205.110 C 200.987 202.168,200.847 200.632,200.592 200.790 C 200.355 200.936,200.200 200.433,200.203 199.530 C 200.208 198.413,200.308 198.178,200.592 198.618 C 200.851 199.019,200.977 197.712,200.981 194.571 L 200.987 189.931 206.724 189.931 L 212.462 189.931 212.425 199.803 " stroke="none" fill="#4e5354" fill-rule="evenodd"></path></g></svg>